# xmcd
#
# Track frame offsets:
#	150
#	30907
#	51409
#	77524
#	101992
#	157282
#	193229
#	229803
#	245923
#	272571
#
# Disc length: 3986 seconds
#
# Revision: 1
# Processed by: cddbd v1.5.2PL0 Copyright (c) Steve Scherf et al.
# Submitted via: audiograbber 1.83.01
#
DISCID=8c0f900a
DTITLE=Grateful Dead - 79-12-09 Kiel Auditorium, St Louis MO
DYEAR=1900
DGENRE=
TTITLE0=Alabama Getaway
TTITLE1=Promised Land
TTITLE2=Brown Eyed Women
TTITLE3=Cassidy
TTITLE4=Row Jimmy
TTITLE5=Minglewood Blues
TTITLE6=Candyman
TTITLE7=Lazy Lightning
TTITLE8=Supplication
TTITLE9=Deal
EXTD=
EXTT0=
EXTT1=
EXTT2=
EXTT3=
EXTT4=
EXTT5=
EXTT6=
EXTT7=
EXTT8=
EXTT9=
PLAYORDER=
